<?xml version="1.0" encoding="UTF-8" standalone="no"?>
<!-- Created with Inkscape (http://www.inkscape.org/) -->

<svg
   width="50mm"
   height="100mm"
   viewBox="0 0 50 100"
   version="1.1"
   id="svg1"
   sodipodi:docname="flamevert.svg"
   inkscape:version="1.4 (e7c3feb1, 2024-10-09)"
   xmlns:inkscape="http://www.inkscape.org/namespaces/inkscape"
   xmlns:sodipodi="http://sodipodi.sourceforge.net/DTD/sodipodi-0.dtd"
   xmlns="http://www.w3.org/2000/svg"
   xmlns:svg="http://www.w3.org/2000/svg">
  <sodipodi:namedview
     id="namedview1"
     pagecolor="#ffffff"
     bordercolor="#000000"
     borderopacity="0.25"
     inkscape:showpageshadow="2"
     inkscape:pageopacity="0.0"
     inkscape:pagecheckerboard="0"
     inkscape:deskcolor="#d1d1d1"
     inkscape:document-units="mm"
     inkscape:zoom="1.6658416"
     inkscape:cx="111.95542"
     inkscape:cy="235.61664"
     inkscape:window-width="2240"
     inkscape:window-height="1122"
     inkscape:window-x="1"
     inkscape:window-y="25"
     inkscape:window-maximized="0"
     inkscape:current-layer="svg1"
     showgrid="false" />
  <defs
     id="defs1" />
  <path
     id="rect1"
     style="fill:#ffb316;stroke:none;stroke-width:5.44749;stroke-linecap:square;stroke-dasharray:none"
     d="M 49.637696,8.657344 39.601656,4.579044 47.389204,0.50126 45.829264,0 H 4.1209397 l 0.301735,0.50126 -3.89350803,4.077784 7.34471903,4.0783 -4.847335,4.0783 4.154555,3.965645 -2.703474,3.853508 3.1072,4.41523 -3.510923,4.077783 3.369302,4.415231 -3.414749,3.740853 -2.699775,4.0783 8.5511382,4.0783 -7.9418512,4.077783 5.682791,3.516576 -3.003098,4.639505 2.710345,4.190438 -1.473807,3.966162 -4.93294103,4.077784 5.47088803,4.0783 -3.534702,4.0783 -1.764445,4.077783 6.251388,4.0783 -2.322473,3.740853 1.599574,4.41523 L 1.6592527,96.35425 4.1209397,100 H 45.829264 l 1.657701,-2.07326 -4.607954,-3.74137 1.676196,-3.966162 -3.838553,-4.077783 5.457678,-4.0783 -1.408808,-4.077782 2.819201,-4.0783 -5.358332,-4.0783 0.06341,-4.077784 4.247562,-4.0783 -3.61661,-4.0783 0.323402,-4.077783 3.894038,-4.078299 -2.299221,-4.527369 2.742579,-3.965646 -2.735709,-3.741368 1.624938,-4.077784 -6.120335,-4.0783 6.998066,-4.077783 -3.655186,-4.0783 -2.799649,-4.0783 3.740792,-4.077783 z"
     sodipodi:nodetypes="ccccccccccccccccccccccccccccccccccccccccccccccccccccccc" />
  <path
     id="path3"
     style="fill:#fff651;fill-opacity:1;stroke:none;stroke-width:4.65891;stroke-linecap:square;stroke-dasharray:none"
     d="M 43.065101,8.657344 35.724385,4.579044 41.420475,0.50126 40.279479,0 H 9.7725349 l 0.220701,0.50126 -2.8478502,4.077784 5.3721863,4.0783 -3.5455121,4.0783 3.0387891,3.965645 -1.977416,3.853508 2.272715,4.41523 -2.5680131,4.077783 2.4644271,4.415231 -2.4976681,3.740853 -1.9747102,4.0783 6.2546033,4.0783 -5.8089493,4.077783 4.1565943,3.516576 -2.196572,4.639505 1.982441,4.190438 -1.077994,3.966162 -3.6081253,4.077784 4.0015983,4.0783 -2.5854033,4.0783 -1.290579,4.077783 4.5724863,4.0783 -1.698739,3.740853 1.169984,4.41523 L 7.9719707,96.35425 9.7725349,100 H 40.279479 l 1.212501,-2.07326 -3.370422,-3.74137 1.226029,-3.966162 -2.807654,-4.077783 3.99194,-4.0783 -1.030451,-4.077782 2.062063,-4.0783 -3.919274,-4.0783 0.04637,-4.077784 3.106817,-4.0783 -2.645316,-4.0783 0.236554,-4.077783 2.848238,-4.078299 -1.681733,-4.527368 2.00602,-3.965646 -2.000995,-3.741369 1.188537,-4.077784 -4.476631,-4.0783 5.118637,-4.077783 -2.673534,-4.0783 -2.047764,-4.0783 2.73615,-4.077783 z"
     sodipodi:nodetypes="ccccccccccccccccccccccccccccccccccccccccccccccccccccccc" />
  <path
     id="path2"
     style="fill:#ffd801;fill-opacity:1;stroke:none;stroke-width:4.15863;stroke-linecap:square;stroke-dasharray:none"
     d="M 39.583529,8.657344 33.734688,4.579044 38.273145,0.50126 37.364036,0 H 13.057111 l 0.175847,0.50126 -2.269073,4.077784 4.280381,4.0783 -2.824947,4.0783 2.421207,3.965645 -1.575539,3.853508 1.810823,4.41523 -2.046107,4.077783 1.963574,4.415231 -1.99006,3.740853 -1.573383,4.0783 4.983461,4.0783 -4.62838,4.077783 3.311837,3.516576 -1.750156,4.639505 1.579544,4.190438 -0.85891,3.966162 -2.874836,4.077784 3.188342,4.0783 -2.059965,4.0783 -1.02829,4.077783 3.643206,4.0783 -1.353499,3.740853 0.932205,4.41523 L 11.622482,96.35425 13.057111,100 h 24.306925 l 0.966082,-2.07326 -2.685442,-3.74137 0.97686,-3.966162 -2.237046,-4.077783 3.180647,-4.0783 -0.821032,-4.077782 1.642986,-4.0783 -3.122749,-4.0783 0.03695,-4.077784 2.47541,-4.0783 -2.107701,-4.0783 0.188479,-4.077783 2.269382,-4.078299 -1.339949,-4.527368 1.59833,-3.965646 -1.594326,-3.741369 0.946987,-4.077784 -3.566832,-4.0783 4.07836,-4.077783 -2.130183,-4.0783 -1.63159,-4.0783 2.180073,-4.077783 z"
     sodipodi:nodetypes="ccccccccccccccccccccccccccccccccccccccccccccccccccccccc" />
</svg>
