<?xml version="1.0" encoding="UTF-8" standalone="no"?>
<!-- Created with Inkscape (http://www.inkscape.org/) -->

<svg
   width="100mm"
   height="50mm"
   viewBox="0 0 99.999999 50"
   version="1.1"
   id="svg1"
   sodipodi:docname="flameendsh.svg"
   inkscape:version="1.4 (e7c3feb1, 2024-10-09)"
   xmlns:inkscape="http://www.inkscape.org/namespaces/inkscape"
   xmlns:sodipodi="http://sodipodi.sourceforge.net/DTD/sodipodi-0.dtd"
   xmlns="http://www.w3.org/2000/svg"
   xmlns:svg="http://www.w3.org/2000/svg">
  <sodipodi:namedview
     id="namedview1"
     pagecolor="#ffffff"
     bordercolor="#000000"
     borderopacity="0.25"
     inkscape:showpageshadow="2"
     inkscape:pageopacity="0.0"
     inkscape:pagecheckerboard="0"
     inkscape:deskcolor="#d1d1d1"
     inkscape:document-units="mm"
     inkscape:zoom="2.3558558"
     inkscape:cx="153.8719"
     inkscape:cy="91.049715"
     inkscape:window-width="2240"
     inkscape:window-height="1122"
     inkscape:window-x="0"
     inkscape:window-y="25"
     inkscape:window-maximized="0"
     inkscape:current-layer="svg1" />
  <defs
     id="defs1" />
  <path
     id="rect1"
     style="fill:#ffb316;stroke:none;stroke-width:5.44749;stroke-linecap:square;stroke-dasharray:none"
     d="m 9.9999064,1.6469279 -4.5485063,5.0935069 -2.526948,14.8082182 2.3584848,15.98746 4.7169695,5.823514 2.7357506,3.251481 3.965649,-4.154268 3.853512,2.703194 4.415234,-3.107304 4.077787,3.510897 4.415235,-3.369303 3.740857,3.414778 4.078304,2.700094 4.078304,-8.551416 4.077787,7.942151 3.516581,-5.682857 4.63951,3.002917 4.190442,-2.710429 3.966166,1.473812 4.077788,4.933032 4.078304,-5.470984 4.078304,3.534668 4.077787,1.76475 4.078304,-6.251298 3.740857,2.322339 4.887221,-8.24258 L 96.512165,26.109163 94.716192,12.385755 90.000191,5.2885661 86.141512,8.9209025 82.063208,3.4633545 77.985421,4.872054 73.907117,2.0531047 69.828813,7.4114339 65.751025,7.3478719 61.672721,3.1005859 57.594417,6.7169027 53.51663,6.3934082 49.438326,2.499589 44.910954,4.7986735 40.945304,2.0562052 37.203931,4.7919556 33.126143,3.1667318 29.047839,9.2872884 24.970052,2.289266 20.891748,5.94434 16.813444,8.7441691 12.735657,5.0033122 Z"
     sodipodi:nodetypes="ccccccccccccccccccccccccccccccccccccccccccccccccc" />
  <path
     id="path3"
     style="fill:#fff651;fill-opacity:1;stroke:none;stroke-width:4.65891;stroke-linecap:square;stroke-dasharray:none"
     d="m 9.9999064,7.7773031 -2.9761832,6.2798649 -1.2353968,8.469886 1.4600144,7.683725 0.6176984,5.83063 4.8696178,4.624326 3.965649,-3.039091 3.853512,1.977657 4.415234,-2.27273 4.077787,2.567802 4.415235,-2.464449 3.740857,2.498039 4.078304,1.974557 4.078304,-6.254399 4.077787,5.808948 3.516581,-4.156853 4.63951,2.196766 4.190442,-1.982825 3.966166,1.078487 4.077788,3.608049 4.078304,-4.001823 4.078304,2.585372 4.077787,1.290877 4.078304,-4.572848 3.740857,1.699121 3.850944,-5.03846 0.714079,-11.431312 -1.449311,-8.827932 -2.99789,-3.467465 -3.858679,2.656686 L 82.063208,9.1059041 77.985421,10.136332 73.907117,8.0744425 69.828813,11.993583 65.751025,11.947074 61.672721,8.8402873 57.594417,11.485604 53.51663,11.248926 49.438326,8.4010376 44.910954,10.082589 40.945304,8.0765096 37.203931,10.077421 33.126143,8.8888631 29.047839,13.365592 24.970052,8.2470418 20.891748,10.920264 16.813444,12.968201 12.735657,10.231934 Z"
     sodipodi:nodetypes="ccccccccccccccccccccccccccccccccccccccccccccccccc" />
  <path
     id="path2"
     style="fill:#ffd801;fill-opacity:1;stroke:none;stroke-width:4.15863;stroke-linecap:square;stroke-dasharray:none"
     d="m 9.943752,13.5969 -0.280772,5.965099 -1.6284776,3.887384 2.2461756,5.178937 -0.168463,5.066627 2.623442,3.523453 3.965649,-2.421041 3.853512,1.575098 4.415234,-1.810742 4.077787,2.046386 4.415235,-1.963704 3.740857,1.990059 4.078304,1.573548 4.078304,-4.983675 4.077787,4.628658 3.516581,-3.311943 4.63951,1.750281 4.190442,-1.579749 3.966166,0.858863 4.077788,2.87476 4.078304,-3.188436 4.078304,2.060339 4.077787,1.028361 4.078304,-3.643705 3.740857,1.353922 2.094228,-2.468044 1.27958,-6.933367 -0.833849,-5.405895 -0.119122,-4.889702 -2.303015,-3.222002 -3.858679,2.116667 -4.078304,-3.180685 -4.077787,0.821139 -4.078304,-1.643311 -4.078304,3.122807 -4.077788,-0.03669 -4.078304,-2.475818 -4.078304,2.107881 -4.077787,-0.188619 -4.078304,-2.269112 -4.527372,1.33997 -3.96565,-1.598352 -3.741373,1.594218 -4.077788,-0.946712 -4.078304,3.566707 -4.077787,-4.078304 -4.078304,2.130103 -4.078304,1.631425 -4.077787,-2.180229 z"
     sodipodi:nodetypes="cccccccccccccccccccccccccccccccccccccccccccccccccc" />
</svg>
