<?xml version="1.0" encoding="UTF-8" standalone="no"?>
<!-- Created with Inkscape (http://www.inkscape.org/) -->

<svg
   width="50mm"
   height="100mm"
   viewBox="0 0 50 100"
   version="1.1"
   id="svg1"
   xmlns="http://www.w3.org/2000/svg"
   xmlns:svg="http://www.w3.org/2000/svg">
  <defs
     id="defs1" />
  <path
     id="rect1-0"
     style="fill:#ffb316;stroke:none;stroke-width:5.44749;stroke-linecap:square;stroke-dasharray:none"
     d="M 47.990792,9.999882 42.897285,5.451376 28.089066,2.924428 12.101606,5.282912 6.278093,9.999882 3.0266117,12.735632 7.18088,16.701281 4.4776857,20.554793 7.58499,24.970027 4.0740927,29.047814 7.443397,33.463049 4.0286187,37.203906 1.3285247,41.28221 9.879939,45.360514 1.9377887,49.438301 7.620646,52.954882 4.6177287,57.594392 7.328158,61.784834 5.854346,65.751 l -4.9330323,4.077788 5.4709843,4.078304 -3.5346683,4.078304 -1.76475,4.077787 6.2512983,4.078304 -2.322339,3.740854 8.242579,4.88722 10.264138,1.74258 13.723408,-1.79597 7.097189,-4.716 -3.632336,-3.858684 5.457548,-4.078304 -1.4087,-4.077787 2.81895,-4.078304 -5.358329,-4.078304 0.06356,-4.077788 4.247286,-4.078304 -3.616317,-4.078304 0.323494,-4.077787 3.893819,-4.078304 -2.299084,-4.527372 2.742468,-3.96565 -2.73575,-3.741373 1.625224,-4.077788 -6.120557,-4.078304 6.998022,-4.077787 -3.655074,-4.078304 -2.799829,-4.078304 3.740857,-4.077787 z" />
  <path
     id="path3-4"
     style="fill:#fff651;fill-opacity:1;stroke:none;stroke-width:4.65891;stroke-linecap:square;stroke-dasharray:none"
     d="M 41.860416,9.999882 35.580551,7.023699 27.110665,5.788302 19.42694,7.248316 l -5.83063,0.617699 -4.624325,4.869617 3.03909,3.965649 -1.977657,3.853512 2.27273,4.415234 -2.567802,4.077787 2.46445,4.415235 -2.498039,3.740857 -1.974556,4.078304 6.254398,4.078304 -5.808947,4.077787 4.156852,3.516581 -2.196767,4.63951 1.982825,4.190442 -1.078487,3.966166 -3.608048,4.077788 4.001822,4.078304 -2.585371,4.078304 -1.290877,4.077787 4.572847,4.078304 -1.699121,3.740854 5.03846,3.85095 11.431312,0.71408 8.827932,-1.44931 3.467466,-2.99789 -2.656687,-3.858684 3.992005,-4.078304 -1.030428,-4.077787 2.06189,-4.078304 -3.919141,-4.078304 0.04651,-4.077788 3.106787,-4.078304 -2.645317,-4.078304 0.236678,-4.077787 2.847889,-4.078304 -1.681552,-4.527372 2.00608,-3.96565 -2.000912,-3.741373 1.188558,-4.077788 -4.476729,-4.078304 5.118551,-4.077787 -2.673223,-4.078304 -2.047937,-4.078304 2.736267,-4.077787 z" />
  <path
     id="path2-0"
     style="fill:#ffd801;fill-opacity:1;stroke:none;stroke-width:4.15863;stroke-linecap:square;stroke-dasharray:none"
     d="M 36.040819,9.943727 30.07572,9.662955 26.188336,8.034478 l -5.178937,2.246175 -5.066627,-0.168463 -3.523453,2.623442 2.421041,3.965649 -1.575098,3.853512 1.810742,4.415234 -2.046386,4.077787 1.963704,4.415235 -1.990059,3.740857 -1.573548,4.078304 4.983675,4.078304 -4.628658,4.077787 3.311943,3.516581 -1.750281,4.63951 1.579749,4.190442 -0.858863,3.966166 -2.87476,4.077788 3.188436,4.078304 -2.060339,4.078304 -1.028361,4.077787 3.643705,4.078304 -1.353922,3.740854 2.468044,2.09423 6.933367,1.27958 5.405895,-0.83385 4.889702,-0.11912 3.222002,-2.30301 -2.116667,-3.858684 3.180685,-4.078304 -0.821139,-4.077787 1.643311,-4.078304 -3.122807,-4.078304 0.03669,-4.077788 2.475818,-4.078304 -2.107881,-4.078304 0.188619,-4.077787 2.269112,-4.078304 -1.33997,-4.527372 1.598352,-3.96565 -1.594218,-3.741373 0.946712,-4.077788 -3.566707,-4.078304 4.078304,-4.077787 -2.130103,-4.078304 -1.631425,-4.078304 2.180229,-4.077787 z" />
</svg>
