<?xml version="1.0" encoding="UTF-8" standalone="no"?>
<!-- Created with Inkscape (http://www.inkscape.org/) -->

<svg
   width="100mm"
   height="50mm"
   viewBox="0 0 99.999999 50"
   version="1.1"
   id="svg1"
   sodipodi:docname="flamevert.svg"
   inkscape:version="1.4 (e7c3feb1, 2024-10-09)"
   xmlns:inkscape="http://www.inkscape.org/namespaces/inkscape"
   xmlns:sodipodi="http://sodipodi.sourceforge.net/DTD/sodipodi-0.dtd"
   xmlns="http://www.w3.org/2000/svg"
   xmlns:svg="http://www.w3.org/2000/svg">
  <sodipodi:namedview
     id="namedview1"
     pagecolor="#ffffff"
     bordercolor="#000000"
     borderopacity="0.25"
     inkscape:showpageshadow="2"
     inkscape:pageopacity="0.0"
     inkscape:pagecheckerboard="0"
     inkscape:deskcolor="#d1d1d1"
     inkscape:document-units="mm"
     inkscape:zoom="2.3558558"
     inkscape:cx="187.40536"
     inkscape:cy="140.71319"
     inkscape:window-width="2240"
     inkscape:window-height="1122"
     inkscape:window-x="1"
     inkscape:window-y="25"
     inkscape:window-maximized="0"
     inkscape:current-layer="svg1" />
  <defs
     id="defs1" />
  <path
     id="rect1"
     style="fill:#ffb316;stroke:none;stroke-width:5.44749;stroke-linecap:square;stroke-dasharray:none"
     d="M 8.657344,0 4.5790441,10.036039 0.50126089,2.2484913 0,3.8084317 V 45.516756 L 0.50126089,45.21502 4.5790441,49.108529 8.657344,41.76381 l 4.0783,4.847335 3.965645,-4.154556 3.853508,2.703474 4.41523,-3.107199 4.077783,3.510923 4.415231,-3.369302 3.740853,3.414748 4.0783,2.699775 4.0783,-8.551138 4.077783,7.941851 3.516577,-5.682791 4.639505,3.003098 4.190438,-2.710345 3.966162,1.473807 4.077784,4.932941 4.0783,-5.470888 4.0783,3.534702 4.077783,1.764445 4.0783,-6.251388 3.740853,2.322473 4.41523,-1.599574 2.056742,4.962241 L 100,45.516756 V 3.8084317 l -2.073259,-1.657701 -3.74137,4.607954 -3.966162,-1.676196 -4.077783,3.8385525 -4.0783,-5.4576777 -4.077783,1.408808 -4.0783,-2.8192012 -4.0783,5.3583318 -4.077784,-0.063412 -4.0783,-4.2475612 -4.0783,3.6166098 L 53.516576,6.3935362 49.438277,2.499498 44.910909,4.7987191 40.945263,2.0561409 37.203894,4.7918494 33.12611,3.1669114 l -4.0783,6.1203353 -4.077783,-6.9980659 -4.0783,3.6551854 -4.0783,2.7996492 -4.077783,-3.740792 z"
     sodipodi:nodetypes="ccccccccccccccccccccccccccccccccccccccccccccccccccccccc" />
  <path
     id="path3"
     style="fill:#fff651;fill-opacity:1;stroke:none;stroke-width:4.65891;stroke-linecap:square;stroke-dasharray:none"
     d="M 8.657344,6.5725943 4.5790441,13.913311 0.50126089,8.2172202 0,9.358217 V 39.86516 l 0.50126089,-0.220701 4.07778321,2.84785 4.0782999,-5.372186 4.0783,3.545512 3.965645,-3.038789 3.853508,1.977416 4.41523,-2.272715 4.077783,2.568013 4.415231,-2.464427 3.740853,2.497668 4.0783,1.97471 4.0783,-6.254603 4.077783,5.808949 3.516577,-4.156594 4.639505,2.196572 4.190438,-1.982441 3.966162,1.077994 4.077784,3.608126 4.0783,-4.001599 4.0783,2.585404 4.077783,1.290578 4.0783,-4.572486 3.740853,1.698739 4.41523,-1.169984 2.056742,3.629558 L 100,39.86516 V 9.358217 l -2.073259,-1.2125015 -3.74137,3.3704225 -3.966162,-1.22603 -4.077783,2.807654 -4.0783,-3.9919397 -4.077783,1.0304517 -4.0783,-2.0620632 -4.0783,3.9192742 -4.077784,-0.04637 -4.0783,-3.1068176 -4.0783,2.6453166 -4.077783,-0.236555 -4.078299,-2.8482375 -4.527368,1.6817325 -3.965646,-2.0060195 -3.741369,2.0009945 -4.077784,-1.1885368 -4.0783,4.4766308 -4.077783,-5.1186361 -4.0783,2.6735331 -4.0783,2.047764 -4.077783,-2.73615 z"
     sodipodi:nodetypes="ccccccccccccccccccccccccccccccccccccccccccccccccccccccc" />
  <path
     id="path2"
     style="fill:#ffd801;stroke:none;stroke-width:4.15863;stroke-linecap:square;stroke-dasharray:none;fill-opacity:1"
     d="M 8.657344,10.054167 4.5790441,15.903008 0.50126089,11.364551 0,12.273659 v 24.306925 l 0.50126089,-0.175847 4.07778321,2.269073 4.0782999,-4.280381 4.0783,2.824947 3.965645,-2.421207 3.853508,1.57554 4.41523,-1.810824 4.077783,2.046108 4.415231,-1.963574 3.740853,1.990059 4.0783,1.573384 4.0783,-4.983461 4.077783,4.628379 3.516577,-3.311837 4.639505,1.750156 4.190438,-1.579544 3.966162,0.85891 4.077784,2.874836 4.0783,-3.188342 4.0783,2.059965 4.077783,1.02829 4.0783,-3.643206 3.740853,1.353499 4.41523,-0.932205 2.056742,2.891912 L 100,36.580584 V 12.273659 l -2.073259,-0.966081 -3.74137,2.685441 -3.966162,-0.97686 -4.077783,2.237046 -4.0783,-3.180646 -4.077783,0.821031 -4.0783,-1.642985 -4.0783,3.122749 -4.077784,-0.03695 -4.0783,-2.47541 -4.0783,2.107701 -4.077783,-0.188479 -4.078299,-2.269382 -4.527368,1.339949 -3.965646,-1.59833 -3.741369,1.594326 -4.077784,-0.946987 -4.0783,3.566832 -4.077783,-4.07836 -4.0783,2.130183 -4.0783,1.63159 -4.077783,-2.180073 z"
     sodipodi:nodetypes="ccccccccccccccccccccccccccccccccccccccccccccccccccccccc" />
</svg>
