<?xml version="1.0" encoding="UTF-8" standalone="no"?>
<!-- Created with Inkscape (http://www.inkscape.org/) -->

<svg
   width="89.929092mm"
   height="115.82285mm"
   viewBox="0 0 89.929092 115.82285"
   version="1.1"
   id="svg1"
   xml:space="preserve"
   inkscape:version="1.4 (e7c3feb1, 2024-10-09)"
   sodipodi:docname="victory.svg"
   xmlns:inkscape="http://www.inkscape.org/namespaces/inkscape"
   xmlns:sodipodi="http://sodipodi.sourceforge.net/DTD/sodipodi-0.dtd"
   xmlns:xlink="http://www.w3.org/1999/xlink"
   xmlns="http://www.w3.org/2000/svg"
   xmlns:svg="http://www.w3.org/2000/svg"><sodipodi:namedview
     id="namedview1"
     pagecolor="#ffffff"
     bordercolor="#000000"
     borderopacity="0.25"
     inkscape:showpageshadow="2"
     inkscape:pageopacity="0.0"
     inkscape:pagecheckerboard="0"
     inkscape:deskcolor="#d1d1d1"
     inkscape:document-units="mm"
     inkscape:zoom="1.2258402"
     inkscape:cx="124.40447"
     inkscape:cy="257.37449"
     inkscape:window-width="1464"
     inkscape:window-height="1122"
     inkscape:window-x="779"
     inkscape:window-y="25"
     inkscape:window-maximized="0"
     inkscape:current-layer="layer1" /><defs
     id="defs1"><linearGradient
       id="linearGradient19"
       inkscape:collect="always"><stop
         style="stop-color:#daad1c;stop-opacity:1;"
         offset="0.10858995"
         id="stop20" /><stop
         style="stop-color:#ffd709;stop-opacity:1;"
         offset="0.40194488"
         id="stop23" /><stop
         style="stop-color:#d8a329;stop-opacity:1;"
         offset="0.62560779"
         id="stop22" /><stop
         style="stop-color:#ffc70f;stop-opacity:1;"
         offset="0.80551052"
         id="stop21" /></linearGradient><linearGradient
       id="swatch19"
       inkscape:swatch="solid"><stop
         style="stop-color:#d08b6d;stop-opacity:1;"
         offset="0"
         id="stop19" /></linearGradient><linearGradient
       inkscape:collect="always"
       xlink:href="#linearGradient19"
       id="linearGradient21"
       x1="62.822237"
       y1="75.37097"
       x2="152.65904"
       y2="75.37097"
       gradientUnits="userSpaceOnUse" /><linearGradient
       inkscape:collect="always"
       xlink:href="#linearGradient19"
       id="linearGradient25"
       x1="76.132118"
       y1="62.235432"
       x2="116.7023"
       y2="61.772556"
       gradientUnits="userSpaceOnUse" /><linearGradient
       inkscape:collect="always"
       xlink:href="#linearGradient19"
       id="linearGradient28"
       x1="61.470333"
       y1="69.555359"
       x2="87.608253"
       y2="69.202835"
       gradientUnits="userSpaceOnUse" /></defs><g
     inkscape:label="Layer 1"
     inkscape:groupmode="layer"
     id="layer1"
     transform="translate(-65.300427,-10.481949)"><path
       id="rect3"
       style="fill:url(#linearGradient21);fill-opacity:1;stroke:#927c21;stroke-width:2.40770833;stroke-opacity:1;stroke-dasharray:none"
       d="m 110.59641,19.126772 c -0.35921,-0.03634 -0.72366,-0.05488 -1.09274,-0.05488 -5.90531,0 -10.659605,4.764 -10.659605,10.681612 l 3.88e-4,45.155507 c -6.997671,-0.277735 -14.841781,-0.590833 -14.841781,-0.590833 0,0 -10.592864,-3.960044 -19.786588,-7.359532 -0.0301,0.575382 -0.04999,1.153957 -0.05295,1.736573 L 64.026572,95.455397 C 63.9252,115.31431 79.830761,131.45763 99.688985,131.65159 l 1.704245,0.0167 c 19.85822,0.19396 35.92653,-15.63739 36.02791,-35.496309 0,0 0.55633,-11.888875 1.83305,-17.671836 2.52674,-11.444965 11.43439,-33.250557 11.43439,-33.250557 2.19521,-5.495381 -0.45251,-11.683308 -5.93647,-13.873952 -5.48396,-2.190643 -11.66613,0.469883 -13.86133,5.965264 0,0 -8.72746,23.705797 -10.46259,23.627725 -1.73512,-0.07807 -0.26509,-31.214724 -0.26509,-31.214724 0,-5.547762 -4.17856,-10.08204 -9.56669,-10.627099 z"
       transform="rotate(-3.740961)"
       sodipodi:nodetypes="ssccccccsssasscscs" /><rect
       style="fill:url(#linearGradient28);fill-opacity:1;stroke:#927c21;stroke-width:2.40770833;stroke-opacity:1;stroke-dasharray:none"
       id="rect1"
       width="20.48666"
       height="35.716881"
       x="61.876945"
       y="52.092365"
       ry="10.24333"
       transform="rotate(-4.5814447)" /><rect
       style="fill:url(#linearGradient25);fill-opacity:1;stroke:#927c21;stroke-width:2.40770833;stroke-opacity:1;stroke-dasharray:none"
       id="rect2"
       width="21.363222"
       height="37.245094"
       x="83.44529"
       y="43.416821"
       ry="10.681611"
       transform="rotate(-1.0242782)" /><path
       id="rect5"
       style="fill:none;fill-opacity:0.551913;stroke:#927c21;stroke-width:2.40770833;stroke-linecap:round;stroke-dasharray:none;stroke-opacity:1"
       d="m 58.559757,-147.25648 c -5.528232,5.49097 -6.756018,6.07497 -6.226982,21.17788 0,5.91761 4.753909,10.68175 10.659223,10.68175 5.905314,0 10.659773,-4.76392 10.659773,-10.68153 l -1.03e-4,-4.64621 8.682569,-6.56431"
       transform="rotate(96.945275)"
       sodipodi:nodetypes="ccsccc" /></g></svg>
